<?xml version="1.0" encoding="UTF-8" standalone="no"?>
<!-- Created with Inkscape (http://www.inkscape.org/) -->

<svg
   version="1.1"
   id="svg1"
   width="1080"
   height="1080"
   viewBox="0 0 1080 1080"
   sodipodi:docname="offblast.svg"
   inkscape:version="1.4.2 (ebf0e940d0, 2025-05-08)"
   inkscape:export-filename="offblast_loading.png"
   inkscape:export-xdpi="96"
   inkscape:export-ydpi="96"
   xmlns:inkscape="http://www.inkscape.org/namespaces/inkscape"
   xmlns:sodipodi="http://sodipodi.sourceforge.net/DTD/sodipodi-0.dtd"
   xmlns="http://www.w3.org/2000/svg"
   xmlns:svg="http://www.w3.org/2000/svg">
  <defs
     id="defs1" />
  <sodipodi:namedview
     id="namedview1"
     pagecolor="#ffffff"
     bordercolor="#000000"
     borderopacity="0.25"
     inkscape:showpageshadow="2"
     inkscape:pageopacity="0.0"
     inkscape:pagecheckerboard="true"
     inkscape:deskcolor="#d1d1d1"
     showgrid="false"
     inkscape:zoom="0.38574219"
     inkscape:cx="330.53164"
     inkscape:cy="559.95949"
     inkscape:window-width="1908"
     inkscape:window-height="1011"
     inkscape:window-x="1924"
     inkscape:window-y="1104"
     inkscape:window-maximized="0"
     inkscape:current-layer="g1" />
  <g
     inkscape:groupmode="layer"
     inkscape:label="Image"
     id="g1">
    <g
       id="g1398"
       transform="matrix(11.104649,0,0,11.104649,-357.79515,-296.27514)">
      <path
         style="display:inline;fill:#a3a3a3"
         d="m 63.219024,89.007594 c -2.61413,-2.62778 -4.113962,-4.530467 -4.113962,-5.218973 0,-3.394153 2.613129,-11.415395 5.748508,-17.645583 5.344252,-10.619349 14.258793,-19.561166 25.010768,-25.087293 8.027415,-4.125801 14.454142,-5.827794 23.615722,-6.254166 l 6.625,-0.308321 v 2.509395 c 0,3.390835 -1.28858,10.66685 -2.59282,14.640385 -5.55961,16.938143 -19.307707,31.092769 -36.657178,37.74112 -4.604206,1.764341 -11.370143,3.75888 -12.750989,3.75888 -0.424098,0 -2.622371,-1.86095 -4.885049,-4.135444 z M 103.94708,65.579407 c 3.03153,-0.937157 6.15241,-5.597043 6.15241,-9.186369 0,-4.198795 -3.17291,-8.337891 -7.31454,-9.541895 -3.11773,-0.906348 -4.99286,-0.648871 -8.041598,1.104204 -6.069518,3.490073 -6.263282,13.056746 -0.338616,16.718391 3.139397,1.940254 5.477738,2.162187 9.542344,0.905669 z"
         id="path1417"
         sodipodi:insensitive="true" />
      <path
         style="display:inline;fill:#a0a0a0"
         d="m 44.605062,107.92524 c 0,-4.56546 0.867655,-6.92952 2.935782,-7.998993 2.57967,-1.334 3.625632,-1.005418 6.70487,2.106293 3.428991,3.46514 3.729157,5.12083 1.400974,7.72761 -1.427259,1.59805 -1.560612,1.63658 -6.25,1.80615 l -4.791626,0.17327 z"
         id="path1416"
         sodipodi:insensitive="true" />
      <path
         style="display:inline;fill:#7b7b7b"
         d="m 69.640176,95.429266 -1.661053,-1.713772 2.18797,-0.573575 c 9.400056,-2.46422 19.356901,-6.908232 25.096438,-11.201228 15.269389,-11.421029 23.535309,-25.728342 25.087029,-43.422653 0.18931,-2.158671 0.57248,-3.875 0.8651,-3.875 0.35537,0 0.43885,2.385507 0.25809,7.375 -0.33341,9.202665 -1.75828,15.025737 -5.61308,22.939258 C 108.2676,80.545081 94.316052,91.972225 77.795652,96.134793 72.350833,97.506698 71.5899,97.44087 69.640176,95.429266 Z"
         id="path1409"
         sodipodi:insensitive="true" />
      <path
         style="display:inline;fill:#4b4b4b"
         d="m 75.020958,122.15205 c -0.495507,-0.30471 -2.091113,-4.31785 -3.930623,-9.88597 l -3.096517,-9.37304 -7.310181,-7.372052 -7.310181,-7.37205 -9.077073,-3.025458 c -4.992389,-1.664002 -9.440278,-3.426796 -9.884196,-3.917321 -0.580427,-0.641364 -0.805753,-1.863851 -0.80224,-4.352492 0.0083,-5.849472 2.544769,-9.820009 7.63097,-11.945159 1.37525,-0.574617 3.747921,-0.76547 9.516243,-0.76547 h 7.684216 l 2.701607,-4.564062 c 9.218916,-15.574327 24.925486,-26.612232 43.389067,-30.491979 5.30746,-1.115256 17.10039,-1.37904 20.5174,-0.458933 1.73265,0.466554 2.08905,0.804766 2.53318,2.403957 0.77472,2.789501 0.62939,14.360301 -0.24392,19.420522 -3.33375,19.316679 -15.12306,35.964893 -32.326086,45.64909 l -2.842438,1.60011 -0.157562,8.387267 c -0.156722,8.34258 -0.165624,8.4003 -1.670779,10.83243 -0.936088,1.5126 -2.446406,3.02229 -3.96001,3.95838 -2.114484,1.3077 -2.99548,1.53169 -6.486783,1.64919 -2.221994,0.0748 -4.415337,-0.0948 -4.874094,-0.37696 z m 9.201216,-6.96675 1.632888,-1.45773 0.162723,-6.73755 0.162723,-6.73754 -2.791052,0.92077 c -1.535079,0.50643 -4.139554,1.18608 -5.787723,1.51033 -1.648169,0.32426 -2.996671,0.71998 -2.996671,0.87938 0,0.15941 0.949777,3.16763 2.110615,6.68495 l 2.110614,6.39513 h 1.881497 c 1.371712,0 2.323924,-0.39497 3.514386,-1.45774 z M 78.356632,96.434465 C 104.48074,89.435352 122.10506,66.530188 122.10506,39.577543 v -5.434505 h -4.96382 c -9.93996,0 -17.943005,1.869337 -26.786178,6.256669 -11.849655,5.878927 -20.256723,14.355876 -26.27493,26.493331 -2.747392,5.540911 -5.47507,13.976507 -5.47507,16.93216 0,1.61491 12.358941,13.818218 13.992786,13.816579 0.691468,-6.94e-4 3.282921,-0.543984 5.758784,-1.207312 z M 54.024279,77.011869 c 0.64307,-2.540357 1.28805,-5.125081 1.433289,-5.743831 0.262304,-1.117469 0.225023,-1.125 -5.569047,-1.125 -6.56936,0 -8.260484,0.538339 -9.555003,3.041662 -0.433659,0.838604 -0.718717,2.100972 -0.633463,2.805263 0.139428,1.151829 0.758036,1.494979 6.155007,3.414273 3.3,1.17356 6.225,2.154607 6.5,2.180104 0.275,0.0255 1.026148,-2.032114 1.669217,-4.572471 z m -14.669217,39.766721 -1.5,-1.3931 0.26674,-6.99623 c 0.285604,-7.49103 0.72188,-9.01331 3.415341,-11.917014 2.767896,-2.983947 7.552097,-4.410557 11.356011,-3.386269 2.923235,0.787145 9.380609,7.469853 10.216087,10.572583 1.289001,4.78698 -1.461103,10.49419 -6.243608,12.95718 -2.244366,1.15584 -3.123476,1.29055 -9.245385,1.41663 l -6.765186,0.13933 z m 14.43211,-5.32496 c 2.16545,-0.90479 3.81789,-3.06434 3.81789,-4.98957 0,-1.2237 -0.645473,-2.19538 -3.110555,-4.68257 -3.433699,-3.464493 -4.550664,-3.798591 -7.232534,-2.163339 -2.287143,1.394569 -2.777226,2.661049 -3.050354,7.882739 l -0.242814,4.64215 h 4.084188 c 2.339746,0 4.788934,-0.29446 5.734179,-0.68941 z"
         id="path1399"
         sodipodi:insensitive="true" />
    </g>
  </g>
</svg>
